<svg 
 xmlns="http://www.w3.org/2000/svg"
 xmlns:xlink="http://www.w3.org/1999/xlink"
>
<defs>
<linearGradient id="linear-gradient-checked-circle" x1="0%" x2="100%" y1="0%" y2="0%">
  <stop offset="0%" stop-color="rgb(41,214,142)" stop-opacity="1" />
  <stop offset="100%" stop-color="rgb(14,208,175)" stop-opacity="1" />
</linearGradient>

</defs>
<path fill-rule="evenodd"  fill="url(#linear-gradient-checked-circle)"
 d="M27.313,27.310 C24.291,30.332 20.274,31.996 16.000,31.996 C11.726,31.996 7.708,30.332 4.686,27.310 C1.664,24.288 -0.000,20.270 -0.000,15.996 C-0.000,11.722 1.664,7.705 4.686,4.682 C7.708,1.660 11.726,-0.005 16.000,-0.005 C20.274,-0.005 24.291,1.660 27.313,4.682 C30.335,7.705 32.000,11.722 32.000,15.996 C32.000,20.270 30.335,24.288 27.313,27.310 ZM16.000,1.871 C8.211,1.871 1.875,8.207 1.875,15.996 C1.875,23.784 8.211,30.121 16.000,30.121 C23.788,30.121 30.125,23.784 30.125,15.996 C30.125,8.207 23.788,1.871 16.000,1.871 ZM14.702,21.130 C14.519,21.313 14.279,21.405 14.039,21.405 C13.799,21.405 13.560,21.313 13.376,21.130 L8.356,16.108 C7.989,15.744 7.989,15.150 8.356,14.783 C8.722,14.417 9.315,14.417 9.681,14.783 L14.039,19.141 L22.318,10.862 C22.684,10.496 23.278,10.496 23.644,10.862 C24.010,11.228 24.010,11.822 23.644,12.188 L14.702,21.130 Z"/>
</svg>